# xmcd CD database file
#
# Track frame offsets:
#	150
#	19155
#	35540
#	53955
#	73747
#	91592
#	112282
#	143180
#	157045
#	180975
#	206640
#
# Disc length: 3068 seconds
#
# Revision: 1
# Processed by: cddbd v1.5PL3 Copyright (c) Steve Scherf et al.
# Submitted via: CDex 1.50beta10
#
DISCID=9a0bfa0b
DTITLE=JET KELLY - 青葉見る花咲き
DYEAR=2003
DGENRE=Rock
TTITLE0=夜の旅人
TTITLE1=ホワイト
TTITLE2=風の唄が聴こえたら旅にでも出るがいい
TTITLE3=地平線
TTITLE4=センチメンタル･ディスコ
TTITLE5=星降り
TTITLE6=空の青
TTITLE7=恋愛偏差値43
TTITLE8=シャララフレンズ
TTITLE9=青葉
TTITLE10=白い朝
EXTD=YEAR: 2003
EXTT0=
EXTT1=
EXTT2=
EXTT3=
EXTT4=
EXTT5=
EXTT6=
EXTT7=
EXTT8=
EXTT9=
EXTT10=
PLAYORDER=
